<svg width="1761" height="1452" viewBox="0 0 1761 1452" fill="none" xmlns="http://www.w3.org/2000/svg">
<path d="M944.025 121L931.025 146.5H829.025L816.025 121L862.525 88.5V26L878.025 0L893.025 26V88.5L944.025 121Z" fill="#FDC843"/>
<path fill-rule="evenodd" clip-rule="evenodd" d="M769.525 320L749.025 301H769.525L828.025 297.215L835.525 297L838.862 538.583V625.513V651.526L769.525 647.01V619.5V536.5V320Z" fill="#FDC843"/>
<path fill-rule="evenodd" clip-rule="evenodd" d="M838.862 538.583L835.525 297H916.525L920.202 538.583L921.525 625.513V652.081L884.525 654.5L838.862 651.526V625.513V538.583Z" fill="#FDC843"/>
<path fill-rule="evenodd" clip-rule="evenodd" d="M920.202 538.583L916.525 297L921.525 297.215L996.025 301H1010.53L996.025 320V619.5V647.21L921.525 652.081V625.513L920.202 538.583Z" fill="#FDC843"/>
<path fill-rule="evenodd" clip-rule="evenodd" d="M996.025 301L921.525 297.215V277H927.525L996.025 280.5V301Z" fill="#FDC843"/>
<path fill-rule="evenodd" clip-rule="evenodd" d="M828.025 297.215L769.525 301V280.5L820.525 277.719L828.025 277.365L921.525 277V297.215L916.525 297H835.525L828.025 297.215Z" fill="#FDC843"/>
<path fill-rule="evenodd" clip-rule="evenodd" d="M613.16 702.757L573.025 654L745.367 665.309L827.213 670.679L881.116 674.216V720L613.16 702.757Z" fill="#FDC843"/>
<path fill-rule="evenodd" clip-rule="evenodd" d="M881.116 720V674.216L924.791 671.339L1012.73 665.547L1188.03 654L1153.79 695.622L881.116 720Z" fill="#FDC843"/>
<path d="M1112.09 731L881.087 751.5L654.087 737L590.025 1369.5L894.256 1452L1195.49 1374.5L1112.09 731Z" fill="#FDC843"/>
<path d="M0.0253906 211.5L829.025 169V254L0.0253906 211.5Z" fill="#FDC843" stroke="#6698FE"/>
<path d="M1760.03 211.5L933.025 254L933.025 169L1760.03 211.5Z" fill="#FDC843" stroke="#6698FE"/>
</svg>
